<svg data-name="Layer 1" xmlns="http://www.w3.org/2000/svg" viewBox="0 0 1024.38 490.48"><path d="M958.63 147.5h-81.58c-7.65 0-15.76 3.39-23.52 8.33a73.09 73.09 0 0 1-78.75 0c-7.79-5-15.92-8.36-23.58-8.36h-81.57a65.38 65.38 0 0 0-18.25 2.59l-35 24.61a65.41 65.41 0 0 0-12.5 38.55V255a66.18 66.18 0 0 0 12.5 38.55V423a67.57 67.57 0 0 0 67.49 67.5h80.26a67.6 67.6 0 0 0 65.29-50.38c8.44-.42 16.73-1.2 24.78-2.32a17.5 17.5 0 0 0-4.83-34.67 263.18 263.18 0 0 1-70.48 0 17.5 17.5 0 0 0-4.84 34.67c5.87.82 11.87 1.44 18 1.89a32.5 32.5 0 0 1-27.87 15.81h-80.31a32.53 32.53 0 0 1-32.49-32.5v-86.43a66.07 66.07 0 0 0 40.43 13.93h45.79a65.94 65.94 0 0 0 64.46-52.78c2.65-13.18 21.48-13.18 24.13 0a66 66 0 0 0 64.46 52.78h45.79a66 66 0 0 0 52.71-26.44l22.18-29.74a66.2 66.2 0 0 0 13.05-39.32v-41.75a65.75 65.75 0 0 0-65.75-65.75zm-171.89 74.26l-14.09 70a35.75 35.75 0 0 1-35 28.7h-45.84a35.77 35.77 0 0 1-28.66-14.37l-11.77-15.79V182.51a35.55 35.55 0 0 1 18.25-5h81.57a35.76 35.76 0 0 1 33.88 24.33l.49 1.46a35.78 35.78 0 0 1 1.17 18.46zM994.38 255a35.76 35.76 0 0 1-7.1 21.38l-22.18 29.75a35.77 35.77 0 0 1-28.66 14.37h-45.79a35.75 35.75 0 0 1-35-28.7l-14.09-70a35.78 35.78 0 0 1 1.17-18.47l.5-1.46a35.74 35.74 0 0 1 33.87-24.33h81.58a35.76 35.76 0 0 1 35.75 35.75z" fill="#dde8f9"/><path d="M53.25 195H160.5a17.5 17.5 0 0 0 0-35H53.25a53.25 53.25 0 0 0 0 106.5h71.5a18.25 18.25 0 0 1 0 36.5H17.5a17.5 17.5 0 0 0 0 35h107.25a53.25 53.25 0 0 0 0-106.5h-71.5a18.25 18.25 0 0 1 0-36.5zm273.21-35H255a53.31 53.31 0 0 0-53.25 53.25V320.5a17.5 17.5 0 0 0 35 0V213.25A18.27 18.27 0 0 1 255 195h71.5a18.27 18.27 0 0 1 18.25 18.25V320.5a17.5 17.5 0 0 0 35 0V213.25A53.31 53.31 0 0 0 326.46 160zm242 0A17.49 17.49 0 0 0 551 177.5v107.25A18.27 18.27 0 0 1 532.71 303h-71.5A18.27 18.27 0 0 1 443 284.75V177.5a17.5 17.5 0 0 0-35 0v107.25A53.31 53.31 0 0 0 461.21 338h71.5A53.31 53.31 0 0 0 586 284.75V177.5a17.5 17.5 0 0 0-17.54-17.5zm390.17 0h-81.58a53.21 53.21 0 0 0-50.46 36.24l-.49 1.46a53.35 53.35 0 0 0-1.74 27.51l14.09 70a53.4 53.4 0 0 0 52.2 42.79h45.79a53.53 53.53 0 0 0 40.44-18.62v1.12a17.5 17.5 0 1 0 35 0V213.25A53.31 53.31 0 0 0 958.63 160zm18.25 95a18.33 18.33 0 0 1-3.63 10.91l-22.18 29.74a18.31 18.31 0 0 1-14.63 7.35h-45.79a18.3 18.3 0 0 1-17.89-14.65l-14.09-70a18.31 18.31 0 0 1 .59-9.43l.5-1.46A18.23 18.23 0 0 1 877.05 195h81.58a18.27 18.27 0 0 1 18.25 18.25zm-175.22-58.76A53.2 53.2 0 0 0 751.2 160h-81.57a53.07 53.07 0 0 0-18.25 3.22V17.5a17.5 17.5 0 0 0-35 0v303a17.5 17.5 0 0 0 35 0v-1.12A53.51 53.51 0 0 0 691.81 338h45.79a53.41 53.41 0 0 0 52.21-42.75l14.09-70a53.25 53.25 0 0 0-1.75-27.51zm-32.08 22.07l-14.09 70A18.29 18.29 0 0 1 737.6 303h-45.79a18.33 18.33 0 0 1-14.63-7.34L655 265.92a18.32 18.32 0 0 1-3.62-10.92v-41.75A18.27 18.27 0 0 1 669.63 195h81.57a18.25 18.25 0 0 1 17.3 12.42l.49 1.46a18.31 18.31 0 0 1 .59 9.43z" fill="#4681e0"/></svg>
